<svg width="160" height="32" viewBox="0 0 160 32" fill="none" xmlns="http://www.w3.org/2000/svg">
<path d="M19.1162 11.21L19.2285 11.5557H29.6787L21.5186 17.4844L21.2246 17.6973L21.3369 18.043L24.4531 27.6348L16.2939 21.707L16 21.4932L15.7061 21.707L7.5459 27.6348L10.6631 18.043L10.7754 17.6973L10.4814 17.4844L2.32129 11.5557H12.7715L12.8838 11.21L16 1.61816L19.1162 11.21Z" fill="#FEDC1D" stroke="#D9C035"/>
<path d="M51.1162 11.21L51.2285 11.5557H61.6787L53.5186 17.4844L53.2246 17.6973L53.3369 18.043L56.4531 27.6348L48.2939 21.707L48 21.4932L47.7061 21.707L39.5459 27.6348L42.6631 18.043L42.7754 17.6973L42.4814 17.4844L34.3213 11.5557H44.7715L44.8838 11.21L48 1.61816L51.1162 11.21Z" fill="#FEDC1D" stroke="#D9C035"/>
<path d="M83.1162 11.21L83.2285 11.5557H93.6787L85.5186 17.4844L85.2246 17.6973L85.3369 18.043L88.4531 27.6348L80.2939 21.707L80 21.4932L79.7061 21.707L71.5459 27.6348L74.6631 18.043L74.7754 17.6973L74.4814 17.4844L66.3213 11.5557H76.7715L76.8838 11.21L80 1.61816L83.1162 11.21Z" fill="#FEDC1D" stroke="#D9C035"/>
<path d="M115.116 11.21L115.229 11.5557H125.679L117.519 17.4844L117.225 17.6973L117.337 18.043L120.453 27.6348L112.294 21.707L112 21.4932L111.706 21.707L103.546 27.6348L106.663 18.043L106.775 17.6973L106.481 17.4844L98.3213 11.5557H108.771L108.884 11.21L112 1.61816L115.116 11.21Z" fill="#FEDC1D" stroke="#D9C035"/>
<path d="M147.116 11.21L147.229 11.5557H157.679L149.519 17.4844L149.225 17.6973L149.337 18.043L152.453 27.6348L144.294 21.707L144 21.4932L143.706 21.707L135.546 27.6348L138.663 18.043L138.775 17.6973L138.481 17.4844L130.321 11.5557H140.771L140.884 11.21L144 1.61816L147.116 11.21Z" fill="#FEDC1D" stroke="#D9C035"/>
</svg>
