<svg width="145" height="68" viewBox="0 0 145 68" fill="none" xmlns="http://www.w3.org/2000/svg">
<rect x="68" y="68" width="68" height="68" rx="34" transform="rotate(180 68 68)" fill="#C4E5F5" fill-opacity="0.8"/>
<rect x="67.5" y="67.5" width="67" height="67" rx="33.5" transform="rotate(180 67.5 67.5)" stroke="black" stroke-opacity="0.2"/>
<g clip-path="url(#clip0_98_720)">
<path fill-rule="evenodd" clip-rule="evenodd" d="M29.9399 35.0599C29.659 34.7787 29.5012 34.3974 29.5012 33.9999C29.5012 33.6024 29.659 33.2212 29.9399 32.9399L35.5959 27.2819C35.8773 27.0006 36.2589 26.8427 36.6568 26.8428C36.8538 26.8428 37.0488 26.8817 37.2308 26.9571C37.4128 27.0325 37.5781 27.1431 37.7174 27.2824C37.8567 27.4217 37.9671 27.5871 38.0425 27.7692C38.1178 27.9512 38.1566 28.1463 38.1565 28.3433C38.1565 28.5403 38.1176 28.7353 38.0422 28.9173C37.9668 29.0993 37.8562 29.2646 37.7169 29.4039L33.1219 33.9999L37.7179 38.5959C37.8612 38.7342 37.9756 38.8997 38.0543 39.0826C38.133 39.2656 38.1744 39.4624 38.1763 39.6616C38.1781 39.8607 38.1402 40.0583 38.0649 40.2427C37.9896 40.427 37.8783 40.5946 37.7375 40.7355C37.5967 40.8764 37.4293 40.9878 37.245 41.0633C37.0607 41.1389 36.8632 41.1769 36.664 41.1753C36.4648 41.1736 36.268 41.1323 36.085 41.0538C35.9019 40.9753 35.7363 40.8611 35.5979 40.7179L29.9379 35.0599H29.9399Z" fill="black"/>
</g>
<rect x="77" width="68" height="68" rx="34" fill="#C4E5F5" fill-opacity="0.8"/>
<rect x="77.5" y="0.5" width="67" height="67" rx="33.5" stroke="black" stroke-opacity="0.2"/>
<path fill-rule="evenodd" clip-rule="evenodd" d="M115.06 32.9401C115.341 33.2213 115.499 33.6026 115.499 34.0001C115.499 34.3976 115.341 34.7788 115.06 35.0601L109.404 40.7181C109.122 40.9994 108.741 41.1573 108.343 41.1572C108.146 41.1572 107.951 41.1183 107.769 41.0429C107.587 40.9675 107.422 40.8569 107.282 40.7176C107.143 40.5783 107.033 40.4129 106.957 40.2308C106.882 40.0488 106.843 39.8537 106.843 39.6567C106.843 39.4597 106.882 39.2647 106.958 39.0827C107.033 38.9007 107.144 38.7354 107.283 38.5961L111.878 34.0001L107.282 29.4041C107.139 29.2658 107.024 29.1003 106.945 28.9174C106.867 28.7344 106.825 28.5376 106.823 28.3384C106.822 28.1393 106.86 27.9417 106.935 27.7573C107.01 27.573 107.121 27.4054 107.262 27.2645C107.403 27.1236 107.57 27.0122 107.755 26.9367C107.939 26.8611 108.137 26.8231 108.336 26.8247C108.535 26.8264 108.732 26.8677 108.915 26.9462C109.098 27.0247 109.263 27.1389 109.402 27.2821L115.062 32.9401L115.06 32.9401Z" fill="black"/>
<defs>
<clipPath id="clip0_98_720">
<rect width="24" height="24" fill="white" transform="translate(22 22)"/>
</clipPath>
</defs>
</svg>
