<svg width="32" height="29" viewBox="0 0 32 29" fill="none" xmlns="http://www.w3.org/2000/svg">
<path d="M27.4213 17.7334C26.6124 20.2306 25.007 22.3937 22.851 23.8911C20.6951 25.3886 18.1077 26.1379 15.4852 26.0241C12.8627 25.9103 10.3499 24.9397 8.33177 23.2612C6.31366 21.5826 4.90161 19.2886 4.312 16.7308L6.58133 16.2828L2.26133 11.8134L0 17.5921L2.392 17.1228C3.05956 20.1254 4.69743 22.8246 7.05251 24.8033C9.40759 26.782 12.3488 27.93 15.4216 28.0699C18.4943 28.2098 21.5277 27.3338 24.0528 25.5774C26.578 23.8209 28.4543 21.2817 29.392 18.3521L27.4213 17.7334ZM29.6507 10.9601C28.9828 7.95754 27.3446 5.25853 24.9894 3.28012C22.6341 1.30171 19.6928 0.154035 16.6201 0.0144327C13.5473 -0.125169 10.5141 0.751077 7.98916 2.50777C5.46421 4.26446 3.58808 6.80381 2.65067 9.73342L4.552 10.3521C5.36068 7.85485 6.96587 5.69165 9.1216 4.19398C11.2773 2.69631 13.8647 1.94678 16.4871 2.06026C19.1096 2.17374 21.6225 3.14397 23.6408 4.82226C25.6591 6.50055 27.0714 8.79432 27.6613 11.3521L25.392 11.8028L29.712 16.2614L32 10.4908L29.6507 10.9601Z" fill="white"/>
</svg>
