<svg width="25" height="25" viewBox="0 0 25 25" fill="none" xmlns="http://www.w3.org/2000/svg">
<path fill-rule="evenodd" clip-rule="evenodd" d="M7.13083 24.2448C6.58049 24.2448 6.12412 23.7884 6.12412 23.2381V1.76173C6.12412 1.2114 6.58049 0.755029 7.13083 0.755029C7.68116 0.755029 8.13753 1.2114 8.13753 1.76173V23.2381C8.13753 23.7884 7.68116 24.2448 7.13083 24.2448ZM1.76173 24.2448C1.2114 24.2448 0.755029 23.7884 0.755029 23.2381V8.4731C0.755029 7.92277 1.2114 7.46639 1.76173 7.46639C2.31207 7.46639 2.76844 7.92277 2.76844 8.4731V23.2381C2.76844 23.7884 2.31207 24.2448 1.76173 24.2448ZM11.4932 23.2381C11.4932 23.7884 11.9496 24.2448 12.4999 24.2448C13.0503 24.2448 13.5066 23.7884 13.5066 23.2381V11.1576C13.5066 10.6073 13.0503 10.1509 12.4999 10.1509C11.9496 10.1509 11.4932 10.6073 11.4932 11.1576V23.2381ZM17.869 24.2448C17.3187 24.2448 16.8623 23.7884 16.8623 23.2381V5.78855C16.8623 5.23822 17.3187 4.78185 17.869 4.78185C18.4193 4.78185 18.8757 5.23822 18.8757 5.78855V23.2381C18.8757 23.7884 18.4193 24.2448 17.869 24.2448ZM22.2314 23.2381C22.2314 23.7884 22.6878 24.2448 23.2381 24.2448C23.7884 24.2448 24.2448 23.7884 24.2448 23.2381V15.1845C24.2448 14.6341 23.7884 14.1778 23.2381 14.1778C22.6878 14.1778 22.2314 14.6341 22.2314 15.1845V23.2381Z" fill="white" stroke="white" stroke-width="1.5" stroke-linecap="round" stroke-linejoin="round"/>
</svg>
