<svg width="16" height="12" viewBox="0 0 16 12" fill="none" xmlns="http://www.w3.org/2000/svg">
<path d="M15.6697 1.76366C15.5808 1.42096 15.4025 1.10801 15.153 0.856781C14.9035 0.605552 14.5918 0.425054 14.2498 0.333729C12.1759 0.0878898 10.0883 -0.0223393 8.00005 0.00374385C5.91185 -0.0223393 3.82418 0.0878898 1.75034 0.333729C1.40827 0.425054 1.09658 0.605552 0.847105 0.856781C0.597634 1.10801 0.419327 1.42096 0.330404 1.76366C0.103389 3.03758 -0.00706223 4.32953 0.000419307 5.62349C-0.00772283 6.9241 0.102729 8.22275 0.330404 9.50331C0.423935 9.84048 0.604289 10.1472 0.853455 10.3929C1.10262 10.6385 1.41188 10.8145 1.75034 10.9032C3.82418 11.1491 5.91185 11.2593 8.00005 11.2332C10.0883 11.2593 12.1759 11.1491 14.2498 10.9032C14.5882 10.8145 14.8975 10.6385 15.1467 10.3929C15.3958 10.1472 15.5762 9.84048 15.6697 9.50331C15.8974 8.22275 16.0078 6.9241 15.9997 5.62349C16.0072 4.32953 15.8967 3.03758 15.6697 1.76366ZM6.36013 8.01338V3.2536L10.5499 5.62349L6.36013 8.00338V8.01338Z" fill="white"/>
</svg>
