<svg width="16" height="16" viewBox="0 0 16 16" fill="none" xmlns="http://www.w3.org/2000/svg">
<path d="M7.99256 3.88868C7.18089 3.88868 6.38745 4.12937 5.71257 4.58031C5.03769 5.03125 4.51168 5.67219 4.20107 6.42207C3.89046 7.17196 3.80918 7.99711 3.96753 8.79319C4.12588 9.58926 4.51674 10.3205 5.09068 10.8944C5.66462 11.4684 6.39586 11.8592 7.19193 12.0176C7.98801 12.1759 8.81316 12.0947 9.56305 11.7841C10.3129 11.4734 10.9539 10.9474 11.4048 10.2726C11.8558 9.59768 12.0964 8.80423 12.0964 7.99256C12.0978 7.45326 11.9925 6.91901 11.7867 6.42051C11.581 5.92201 11.2787 5.46908 10.8974 5.08773C10.516 4.70639 10.0631 4.40415 9.56461 4.19838C9.06611 3.99261 8.53186 3.88736 7.99256 3.88868ZM7.99256 10.6651C7.46399 10.6651 6.94728 10.5083 6.50778 10.2147C6.06829 9.92103 5.72574 9.50363 5.52347 9.01529C5.32119 8.52695 5.26826 7.9896 5.37138 7.47118C5.4745 6.95276 5.72904 6.47656 6.1028 6.1028C6.47656 5.72904 6.95276 5.4745 7.47118 5.37138C7.9896 5.26826 8.52695 5.32119 9.01529 5.52347C9.50363 5.72574 9.92103 6.06829 10.2147 6.50778C10.5083 6.94728 10.6651 7.46399 10.6651 7.99256C10.6651 8.70136 10.3835 9.38113 9.88232 9.88232C9.38113 10.3835 8.70136 10.6651 7.99256 10.6651ZM13.2275 3.71852C13.2275 3.91649 13.1688 4.11001 13.0588 4.27461C12.9488 4.43922 12.7925 4.56751 12.6096 4.64327C12.4267 4.71903 12.2255 4.73885 12.0313 4.70023C11.8371 4.66161 11.6588 4.56628 11.5188 4.42629C11.3788 4.28631 11.2835 4.10796 11.2449 3.91379C11.2062 3.71963 11.2261 3.51837 11.3018 3.33547C11.3776 3.15257 11.5059 2.99625 11.6705 2.88626C11.8351 2.77628 12.0286 2.71757 12.2266 2.71757C12.492 2.71757 12.7466 2.82303 12.9343 3.01074C13.1221 3.19846 13.2275 3.45305 13.2275 3.71852ZM15.9401 4.71946C15.9703 3.47492 15.506 2.26915 14.6489 1.36629C14.2042 0.936474 13.6792 0.598541 13.1038 0.371827C12.5284 0.145113 11.914 0.0340674 11.2957 0.0450426C9.99445 -0.0150142 5.99067 -0.0150142 4.68944 0.0450426C3.44546 0.0181063 2.24089 0.481957 1.33626 1.33626C0.479146 2.23912 0.0148323 3.4449 0.0450426 4.68944C-0.0150142 5.99067 -0.0150142 9.99445 0.0450426 11.2957C0.0148323 12.5402 0.479146 13.746 1.33626 14.6489C2.24089 15.5032 3.44546 15.967 4.68944 15.9401C6.01069 16.0202 9.97444 16.0202 11.2957 15.9401C12.5402 15.9703 13.746 15.506 14.6489 14.6489C15.506 13.746 15.9703 12.5402 15.9401 11.2957C16.0001 9.99445 16.0001 5.99067 15.9401 4.68944V4.71946ZM14.2385 12.727C14.1026 13.0713 13.8974 13.384 13.6357 13.6457C13.374 13.9074 13.0613 14.1126 12.717 14.2485C11.1632 14.5626 9.57462 14.6703 7.99256 14.5688C6.41383 14.6694 4.82871 14.5618 3.2781 14.2485C2.93384 14.1126 2.62116 13.9074 2.35944 13.6457C2.09773 13.384 1.89256 13.0713 1.75666 12.727C1.33626 11.666 1.42635 9.16367 1.42635 8.00257C1.42635 6.84147 1.33626 4.3291 1.75666 3.2781C1.88873 2.93044 2.09243 2.61443 2.35454 2.3506C2.61665 2.08677 2.93131 1.881 3.2781 1.74665C4.82871 1.43338 6.41383 1.32568 7.99256 1.42635C9.57462 1.3248 11.1632 1.4325 12.717 1.74665C13.0613 1.88255 13.374 2.08772 13.6357 2.34943C13.8974 2.61115 14.1026 2.92383 14.2385 3.26809C14.6589 4.3291 14.5588 6.83146 14.5588 7.99256C14.5588 9.15366 14.6589 11.666 14.2385 12.717V12.727Z" fill="white"/>
</svg>
