<svg width="18" height="15" viewBox="0 0 18 15" fill="none" xmlns="http://www.w3.org/2000/svg">
<path d="M11.0301 0.219679L17.7798 6.96935C17.8495 7.039 17.9048 7.12171 17.9425 7.21276C17.9803 7.3038 17.9997 7.40139 17.9997 7.49995C17.9997 7.59851 17.9803 7.6961 17.9425 7.78714C17.9048 7.87818 17.8495 7.9609 17.7798 8.03055L11.0301 14.7802C10.8894 14.9209 10.6985 15 10.4995 15C10.3005 15 10.1096 14.9209 9.96889 14.7802C9.82816 14.6395 9.74911 14.4486 9.74911 14.2496C9.74911 14.0506 9.82816 13.8597 9.96889 13.719L15.4389 8.24991H0.749963C0.551061 8.24991 0.360305 8.1709 0.219659 8.03025C0.0790139 7.88961 0 7.69885 0 7.49995C0 7.30105 0.0790139 7.11029 0.219659 6.96964C0.360305 6.829 0.551061 6.74999 0.749963 6.74999H15.4389L9.96889 1.28088C9.82816 1.14015 9.74911 0.949292 9.74911 0.750278C9.74911 0.551265 9.82816 0.360403 9.96889 0.219679C10.1096 0.0789547 10.3005 -0.000102992 10.4995 -0.000102992C10.6985 -0.000102992 10.8894 0.0789547 11.0301 0.219679Z" fill="white"/>
</svg>
