<svg width="27" height="16" viewBox="0 0 27 16" fill="none" xmlns="http://www.w3.org/2000/svg">
<path d="M0.397605 15.5741C0.121932 15.2985 -0.0103907 14.9713 0.000636167 14.5927C0.0116631 14.2142 0.143986 13.898 0.397605 13.6444L7.66847 6.27018C8.19685 5.74181 8.85157 5.47762 9.63264 5.47762C10.4137 5.47762 11.0684 5.74181 11.5968 6.27018L15.1461 9.85393L22.3136 2.75535H20.1082C19.7177 2.75535 19.3905 2.62303 19.1268 2.35838C18.8631 2.09374 18.7308 1.76707 18.7298 1.37837C18.7289 0.98967 18.8613 0.662538 19.1268 0.396973C19.3924 0.131408 19.7195 -0.000914156 20.1082 4.753e-06H25.6217C26.0122 4.753e-06 26.3398 0.132327 26.6044 0.396973C26.8691 0.661619 27.0009 0.988751 27 1.37837V6.89182C27 7.28236 26.8677 7.60995 26.6031 7.8746C26.3384 8.13924 26.0113 8.27111 25.6217 8.27019C25.232 8.26927 24.9049 8.1374 24.6403 7.8746C24.3756 7.61179 24.2433 7.2842 24.2433 6.89182V4.68644L17.1103 11.8181C16.5819 12.3465 15.9272 12.6107 15.1461 12.6107C14.365 12.6107 13.7103 12.3465 13.1819 11.8181L9.63264 8.26881L2.32731 15.5741C2.07461 15.8268 1.753 15.9532 1.36246 15.9532C0.971923 15.9532 0.650305 15.8268 0.397605 15.5741Z" fill="white"/>
</svg>
