<svg width="19" height="24" viewBox="0 0 19 24" fill="none" xmlns="http://www.w3.org/2000/svg">
<path d="M9.49996 23.9589C9.37691 23.9589 9.24708 23.9476 9.11046 23.925C8.97384 23.9023 8.84718 23.8684 8.73046 23.8232C6.05871 22.8053 3.9357 21.0791 2.36142 18.6443C0.787139 16.2096 0 13.5741 0 10.7377V4.92505C0 4.46362 0.133452 4.04608 0.400355 3.67241C0.667259 3.29875 1.00881 3.02732 1.42499 2.85813L8.73318 0.143856C8.99737 0.0479521 9.25296 0 9.49996 0C9.74696 0 10.003 0.0479521 10.2681 0.143856L17.5749 2.85813C17.9911 3.02732 18.3327 3.29875 18.5996 3.67241C18.8665 4.04608 18.9999 4.46362 18.9999 4.92505V10.7377C18.9999 13.5741 18.2128 16.2096 16.6385 18.6443C15.0642 21.0791 12.9412 22.8053 10.2695 23.8232C10.1518 23.8684 10.0252 23.9023 9.88946 23.925C9.75374 23.9476 9.62391 23.9589 9.49996 23.9589Z" fill="white"/>
</svg>
