<svg width="16" height="16" viewBox="0 0 16 16" fill="none" xmlns="http://www.w3.org/2000/svg">
<path d="M15.9999 7.90189C15.9811 6.37733 15.5271 4.88987 14.6913 3.61468C13.8555 2.3395 12.6728 1.3297 11.2823 0.704216C9.89182 0.078727 8.35156 -0.136405 6.84292 0.0841567C5.33428 0.304718 3.92008 0.951787 2.76687 1.94916C1.61366 2.94653 0.769463 4.25267 0.333705 5.71375C-0.102054 7.17483 -0.111229 8.73001 0.30726 10.1961C0.725749 11.6623 1.55447 12.9783 2.69584 13.9892C3.8372 15.0001 5.24367 15.6638 6.7496 15.9021V10.232H4.74954V7.90189H6.7496V6.13184C6.70332 5.72026 6.74794 5.30354 6.88031 4.91109C7.01268 4.51864 7.22958 4.16002 7.51569 3.86056C7.8018 3.56109 8.15016 3.32808 8.53617 3.17796C8.92218 3.02783 9.33643 2.96427 9.74969 2.99174C10.3495 3.00026 10.9479 3.05374 11.5397 3.15175V5.15181H10.5397C10.3673 5.13006 10.1921 5.14734 10.0273 5.20237C9.86241 5.2574 9.71202 5.34878 9.58722 5.46974C9.46241 5.59071 9.36638 5.73817 9.30623 5.90124C9.24607 6.06431 9.22333 6.23881 9.23968 6.41185V7.92189H11.4597L11.0997 10.252H9.24968V15.8521C11.1396 15.5532 12.8599 14.5868 14.0983 13.1281C15.3368 11.6695 16.0114 9.81532 15.9999 7.90189Z" fill="white"/>
</svg>
