<svg width="18" height="18" viewBox="0 0 18 18" fill="none" xmlns="http://www.w3.org/2000/svg">
<path fill-rule="evenodd" clip-rule="evenodd" d="M6.58304 0.741632C6.70547 0.515083 6.88745 0.326275 7.10933 0.195588C7.33122 0.0649014 7.58458 -0.00269949 7.84208 8.25299e-05L10.6429 0.0427617C10.8997 0.0483935 11.1501 0.123878 11.3672 0.261107C11.5843 0.398336 11.76 0.592124 11.8753 0.821656L12.9956 3.07298L14.9748 2.90493C15.2283 2.88481 15.4824 2.9334 15.7106 3.0456C15.9387 3.15779 16.1324 3.32944 16.2712 3.54245L17.6849 5.73509C17.8368 5.9712 17.9142 6.2475 17.907 6.52814C17.8999 6.80877 17.8086 7.08078 17.6449 7.30888L16.6046 8.7653L17.7116 10.2271C18.0557 10.6805 18.0904 11.2994 17.797 11.7902L16.4633 14.0255C16.3307 14.2447 16.141 14.4238 15.9146 14.5436C15.6881 14.6634 15.4334 14.7195 15.1776 14.7057L13.0836 14.5777L11.7952 17.2158C11.6786 17.4503 11.4991 17.6478 11.2768 17.7863C11.0545 17.9247 10.7981 17.9987 10.5362 18H7.65002C7.38857 17.9982 7.13273 17.924 6.91093 17.7856C6.68913 17.6471 6.51007 17.4499 6.39366 17.2158L5.18264 14.7377L2.94198 14.9404C2.68369 14.9621 2.42442 14.9124 2.19249 14.7967C1.96056 14.6809 1.76491 14.5037 1.62693 14.2842L0.21052 12.0036C0.060292 11.7615 -0.012533 11.4794 0.00176534 11.1948C0.0160636 10.9103 0.116805 10.6369 0.290543 10.4111L1.57092 8.74396L0.541283 7.30621C0.378042 7.07785 0.2872 6.80569 0.280541 6.52506C0.273882 6.24443 0.351714 5.96827 0.503939 5.73242L1.91768 3.53978C2.05626 3.32719 2.2495 3.15581 2.47713 3.04364C2.70476 2.93147 2.95839 2.88263 3.21139 2.90226L5.33735 3.08365L6.58304 0.741632ZM8.17818 2.006L6.91914 4.37469C6.78918 4.61592 6.59191 4.81418 6.35134 4.94536C6.11077 5.07654 5.83726 5.13498 5.56408 5.11357L3.40345 4.92952L2.40583 6.47664L3.4568 7.94373C3.63164 8.18778 3.72342 8.48154 3.71862 8.78171C3.71381 9.08188 3.61268 9.37256 3.43013 9.61089L2.12841 11.302L3.13137 12.9185L5.4147 12.7105C5.69763 12.6842 5.98183 12.7447 6.22957 12.8838C6.47732 13.0229 6.67689 13.2341 6.80177 13.4893L8.02613 15.9994H10.1601L11.4618 13.34C11.5848 13.093 11.7773 12.8874 12.0158 12.7485C12.2542 12.6096 12.528 12.5435 12.8035 12.5584L14.9321 12.6864L15.8711 11.1127L14.7401 9.61889C14.5602 9.38071 14.4611 9.09128 14.4572 8.79281C14.4534 8.49435 14.545 8.20246 14.7188 7.95974L15.7831 6.47664L14.7854 4.92952L12.7582 5.10024C12.478 5.12412 12.1971 5.0631 11.9521 4.92513C11.7071 4.78716 11.5093 4.57863 11.3844 4.32668L10.2454 2.03801L8.17818 2.006Z" fill="white"/>
</svg>
