<svg width="37" height="37" viewBox="0 0 37 37" fill="none" xmlns="http://www.w3.org/2000/svg">
<path d="M18.5 0.25C18.9641 0.25 19.4091 0.434507 19.7373 0.762695C20.0655 1.09088 20.25 1.53587 20.25 2V16.75H35C35.4641 16.75 35.9091 16.9345 36.2373 17.2627C36.5655 17.5909 36.75 18.0359 36.75 18.5C36.75 18.9641 36.5655 19.4091 36.2373 19.7373C35.9091 20.0655 35.4641 20.25 35 20.25H20.25V35C20.25 35.4641 20.0655 35.9091 19.7373 36.2373C19.4091 36.5655 18.9641 36.75 18.5 36.75C18.0359 36.75 17.5909 36.5655 17.2627 36.2373C16.9345 35.9091 16.75 35.4641 16.75 35V20.25H2C1.53587 20.25 1.09088 20.0655 0.762695 19.7373C0.434507 19.4091 0.25 18.9641 0.25 18.5C0.25 18.0359 0.434506 17.5909 0.762695 17.2627C1.09088 16.9345 1.53587 16.75 2 16.75H16.75V2C16.75 1.53587 16.9345 1.09088 17.2627 0.762695C17.5909 0.434506 18.0359 0.25 18.5 0.25Z" fill="black" stroke="black" stroke-width="0.5"/>
</svg>
