<svg width="21" height="30" viewBox="0 0 21 30" fill="none" xmlns="http://www.w3.org/2000/svg">
<path d="M20.4908 26.6042L18.2581 21.969C17.7776 20.9786 17.1564 20.2578 16.0841 20.6973L13.9686 21.4826C12.2751 22.2678 11.4312 21.4826 10.5815 20.2989L6.77252 11.6319C6.292 10.6416 6.54398 9.70985 7.61636 9.27035L10.5757 8.08663C11.648 7.64128 11.4781 6.7154 10.9976 5.72506L8.4602 1.0019C7.97968 0.0115615 6.9952 -0.228698 5.92282 0.210801C3.77806 1.09566 2.00249 2.48448 0.848066 4.54134C-0.558332 7.05528 0.144867 10.5537 0.426147 12.0246C0.707427 13.4954 1.69191 16.0738 2.96352 18.7167C4.23514 21.3654 5.34854 23.4457 6.3506 24.6235C7.3468 25.8014 9.73768 29.0244 12.697 29.7452C15.123 30.3312 17.7424 29.8389 19.8872 28.9541C20.9654 28.5322 20.9654 27.6004 20.4908 26.6042Z" fill="white"/>
</svg>
