<svg width="16" height="16" viewBox="0 0 16 16" fill="none" xmlns="http://www.w3.org/2000/svg">
<path d="M6.24 9.6C6.08178 9.6 5.92711 9.55308 5.79555 9.46518C5.66399 9.37727 5.56145 9.25233 5.5009 9.10615C5.44035 8.95997 5.42451 8.79911 5.45538 8.64393C5.48624 8.48874 5.56244 8.3462 5.67432 8.23431C5.7862 8.12243 5.92875 8.04624 6.08393 8.01537C6.23912 7.9845 6.39997 8.00035 6.54615 8.0609C6.69233 8.12145 6.81727 8.22398 6.90518 8.35554C6.99308 8.4871 7.04 8.64178 7.04 8.8C7.04 8.90506 7.01931 9.00909 6.97911 9.10615C6.9389 9.20321 6.87998 9.2914 6.80569 9.36569C6.7314 9.43997 6.64321 9.4989 6.54615 9.5391C6.44909 9.57931 6.34506 9.6 6.24 9.6ZM16 8C16 9.58225 15.5308 11.129 14.6518 12.4446C13.7727 13.7602 12.5233 14.7855 11.0615 15.391C9.59966 15.9965 7.99113 16.155 6.43928 15.8463C4.88743 15.5376 3.46197 14.7757 2.34315 13.6569C1.22433 12.538 0.462403 11.1126 0.153721 9.56072C-0.15496 8.00887 0.00346625 6.40034 0.608967 4.93853C1.21447 3.47672 2.23985 2.22729 3.55544 1.34824C4.87103 0.469192 6.41775 0 8 0C10.1217 0 12.1566 0.842855 13.6569 2.34315C15.1571 3.84344 16 5.87827 16 8ZM11.73 6.67C11.4543 6.68623 11.1943 6.80376 11 7C10.1775 6.45638 9.21583 6.16127 8.23 6.15L8.79 3.62L10.58 4.02C10.5787 4.12458 10.5981 4.22839 10.6372 4.32539C10.6764 4.4224 10.7343 4.51067 10.8078 4.58509C10.8813 4.65951 10.9689 4.7186 11.0654 4.75892C11.1619 4.79925 11.2654 4.82001 11.37 4.82C11.5831 4.81737 11.7866 4.73087 11.9363 4.57925C12.0861 4.42763 12.17 4.2231 12.17 4.01C12.176 3.82715 12.1183 3.6479 12.0069 3.50284C11.8954 3.35777 11.737 3.25589 11.5588 3.21458C11.3806 3.17327 11.1936 3.1951 11.0296 3.27633C10.8657 3.35756 10.7351 3.49317 10.66 3.66L8.66 3.22C8.61239 3.21087 8.56309 3.22027 8.52219 3.2463C8.4813 3.27233 8.45189 3.313 8.44 3.36L7.82 6.15C6.83479 6.16517 5.87416 6.45995 5.05 7C4.94175 6.88823 4.81043 6.80141 4.66518 6.7456C4.51993 6.68979 4.36426 6.66633 4.20902 6.67685C4.05378 6.68738 3.9027 6.73163 3.76631 6.80654C3.62993 6.88144 3.51152 6.98519 3.41934 7.11055C3.32717 7.2359 3.26344 7.37986 3.23261 7.53237C3.20178 7.68489 3.20458 7.84229 3.24082 7.99361C3.27706 8.14493 3.34586 8.28653 3.44244 8.40853C3.53902 8.53053 3.66104 8.63 3.8 8.7C3.78454 8.86631 3.78454 9.03369 3.8 9.2C3.8 10.89 5.71 12.27 8.06 12.27C10.41 12.27 12.32 10.89 12.32 9.2C12.32 9.02824 12.2998 8.85707 12.26 8.69C12.4621 8.57554 12.6215 8.39844 12.714 8.18543C12.8066 7.97243 12.8274 7.73508 12.7732 7.50924C12.719 7.28341 12.5927 7.08133 12.4136 6.93354C12.2344 6.78575 12.012 6.70027 11.78 6.69L11.73 6.67ZM9.51 10.42C9.06062 10.7023 8.5407 10.852 8.01 10.852C7.47931 10.852 6.95939 10.7023 6.51 10.42C6.47313 10.3863 6.42497 10.3676 6.375 10.3676C6.32503 10.3676 6.27687 10.3863 6.24 10.42C6.2206 10.4378 6.20512 10.4594 6.19452 10.4835C6.18393 10.5076 6.17846 10.5337 6.17846 10.56C6.17846 10.5863 6.18393 10.6124 6.19452 10.6365C6.20512 10.6606 6.2206 10.6822 6.24 10.7C6.7652 11.0564 7.3853 11.2469 8.02 11.2469C8.65471 11.2469 9.2748 11.0564 9.8 10.7C9.8194 10.6822 9.83489 10.6606 9.84549 10.6365C9.85608 10.6124 9.86155 10.5863 9.86155 10.56C9.86155 10.5337 9.85608 10.5076 9.84549 10.4835C9.83489 10.4594 9.8194 10.4378 9.8 10.42C9.78132 10.4003 9.75883 10.3847 9.7339 10.374C9.70898 10.3633 9.68213 10.3577 9.655 10.3577C9.62788 10.3577 9.60103 10.3633 9.57611 10.374C9.55118 10.3847 9.52869 10.4003 9.51 10.42ZM9.76 8C9.60178 8 9.44711 8.04692 9.31555 8.13482C9.18399 8.22273 9.08145 8.34767 9.0209 8.49385C8.96035 8.64003 8.94451 8.80089 8.97538 8.95607C9.00624 9.11126 9.08244 9.2538 9.19432 9.36569C9.3062 9.47757 9.44875 9.55376 9.60393 9.58463C9.75912 9.6155 9.91997 9.59965 10.0662 9.5391C10.2123 9.47855 10.3373 9.37602 10.4252 9.24446C10.5131 9.1129 10.56 8.95823 10.56 8.8C10.56 8.58783 10.4757 8.38434 10.3257 8.23431C10.1757 8.08429 9.97218 8 9.76 8Z" fill="white"/>
</svg>
