<svg width="6" height="6" viewBox="0 0 6 6" fill="none" xmlns="http://www.w3.org/2000/svg">
<path fill-rule="evenodd" clip-rule="evenodd" d="M3 2C2.73478 2 2.48043 2.10536 2.29289 2.29289C2.10536 2.48043 2 2.73478 2 3C2 3.26522 2.10536 3.51957 2.29289 3.70711C2.48043 3.89464 2.73478 4 3 4C3.26522 4 3.51957 3.89464 3.70711 3.70711C3.89464 3.51957 4 3.26522 4 3C4 2.73478 3.89464 2.48043 3.70711 2.29289C3.51957 2.10536 3.26522 2 3 2ZM0 3C0 2.20435 0.316071 1.44129 0.87868 0.87868C1.44129 0.316071 2.20435 0 3 0C3.79565 0 4.55871 0.316071 5.12132 0.87868C5.68393 1.44129 6 2.20435 6 3C6 3.79565 5.68393 4.55871 5.12132 5.12132C4.55871 5.68393 3.79565 6 3 6C2.20435 6 1.44129 5.68393 0.87868 5.12132C0.316071 4.55871 0 3.79565 0 3Z" fill="white"/>
</svg>
