<svg width="16" height="17" viewBox="0 0 16 17" fill="none" xmlns="http://www.w3.org/2000/svg">
<path d="M14.7196 0.0014355H1.36996C1.19789 -0.00662639 1.02592 0.0193278 0.863894 0.0778125C0.701869 0.136297 0.55297 0.226164 0.42572 0.342268C0.29847 0.458372 0.195368 0.598433 0.122317 0.754434C0.0492666 0.910435 0.00770091 1.07931 0 1.2514V14.631C0.01008 14.9911 0.15765 15.3338 0.412415 15.5885C0.667179 15.8433 1.00981 15.9909 1.36996 16.0009H14.7196C15.0697 15.9854 15.3998 15.8332 15.639 15.5771C15.8783 15.321 16.0077 14.9814 15.9995 14.631V1.2514C16.0024 1.08391 15.971 0.917596 15.9073 0.762665C15.8436 0.607733 15.7489 0.467447 15.6291 0.350408C15.5092 0.23337 15.3667 0.142046 15.2103 0.0820381C15.0539 0.0220298 14.8869 -0.00539855 14.7196 0.0014355ZM4.99985 13.341H2.66992V6.21125H4.99985V13.341ZM3.88988 5.13128C3.72729 5.13694 3.56529 5.10893 3.41405 5.04899C3.26281 4.98905 3.1256 4.89848 3.01103 4.78298C2.89647 4.66747 2.80702 4.52953 2.74832 4.3778C2.68962 4.22608 2.66293 4.06385 2.66992 3.90132C2.66273 3.73703 2.68996 3.57305 2.74987 3.4199C2.80977 3.26675 2.90103 3.12781 3.01778 3.012C3.13453 2.89619 3.2742 2.80606 3.42783 2.7474C3.58146 2.68874 3.74565 2.66284 3.90988 2.67135C4.07247 2.66569 4.23447 2.69371 4.38571 2.75364C4.53695 2.81358 4.67416 2.90415 4.78873 3.01965C4.90329 3.13516 4.99274 3.27311 5.05144 3.42483C5.11014 3.57656 5.13684 3.73878 5.12984 3.90132C5.13703 4.06561 5.1098 4.22959 5.0499 4.38274C4.98999 4.53588 4.89874 4.67482 4.78198 4.79063C4.66523 4.90644 4.52556 4.99657 4.37193 5.05523C4.2183 5.1139 4.05411 5.1398 3.88988 5.13128ZM13.3396 13.341H10.9997V9.44115C10.9997 8.51117 10.6697 7.8712 9.8397 7.8712C9.58186 7.87344 9.33103 7.95536 9.12158 8.10574C8.91212 8.25611 8.7543 8.46759 8.66974 8.71117C8.60388 8.89357 8.57664 9.08767 8.58974 9.28115V13.341H6.28981V6.21125H8.58974V7.21122C8.79422 6.83556 9.09856 6.52375 9.46914 6.31022C9.83973 6.09669 10.2621 5.98976 10.6897 6.00125C12.1996 6.00125 13.3396 7.00122 13.3396 9.13116V13.341Z" fill="white"/>
</svg>
