<svg width="18" height="18" viewBox="0 0 18 18" fill="none" xmlns="http://www.w3.org/2000/svg">
<path d="M16.2363 12.2746L13.6912 11.9841C13.3919 11.9489 13.0886 11.982 12.8039 12.081C12.5193 12.1799 12.2608 12.342 12.0479 12.5552L10.2042 14.3989C7.35984 12.9519 5.04787 10.64 3.6009 7.79565L5.45462 5.94193C5.88549 5.51107 6.09591 4.90986 6.02577 4.29863L5.73519 1.77356C5.67859 1.28467 5.44407 0.833699 5.07633 0.506613C4.70858 0.179526 4.23334 -0.00080168 3.74118 2.67933e-06H2.0077C0.875431 2.67933e-06 -0.0664599 0.941893 0.00368087 2.07417C0.534747 10.6313 7.37849 17.4651 15.9256 17.9961C17.0579 18.0663 17.9998 17.1244 17.9998 15.9921V14.2586C18.0098 13.2466 17.2483 12.3949 16.2363 12.2746Z" fill="white"/>
</svg>
